<svg height="464pt" viewBox="0 0 464.00333 464" width="464pt" xmlns="http://www.w3.org/2000/svg"><path d="m.00390625 184 32.12109375 4.960938c19.59375 3.027343 36.125 16.183593 43.46875 34.601562l12.042969 30.191406-35.632813-9.753906c-14.78125-4.046875-27.257812-13.976562-34.519531-27.46875zm0 0" fill="#6b9777"/><path d="m101.011719 306.25c-2.777344.003906-5.355469-1.429688-6.816407-3.792969-12.269531-19.914062-15.777343-44.011719-9.695312-66.597656l6.152344-22.761719c1.25-4.136718 5.566406-6.53125 9.742187-5.40625 4.171875 1.128906 6.695313 5.367188 5.695313 9.574219l-6.160156 22.734375c-4.917969 18.324219-2.070313 37.863281 7.882812 54.019531 1.519531 2.464844 1.589844 5.5625.179688 8.09375-1.414063 2.53125-4.082032 4.101563-6.980469 4.105469zm0 0" fill="#55785f"/><path d="m144.003906 40h320v424h-320zm0 0" fill="#a88e74"/><path d="m144.003906 64h296v400h-296zm0 0" fill="#9a826a"/><path d="m352.003906 40h8v32h-8zm0 0" fill="#9a826a"/><path d="m120.003906 72h312v392h-312zm0 0" fill="#f0f0f0"/><path d="m336.003906 88h-80c-8.835937 0-16-7.160156-16-16v-32h112v32c0 8.839844-7.164062 16-16 16zm0 0" fill="#a8a8a8"/><path d="m289.371094 0h6.632812c8.835938 0 16 7.164062 16 16v24h-38.664062v-24c0-4.246094 1.691406-8.320312 4.695312-11.324219 3.007813-3 7.085938-4.6835935 11.335938-4.675781zm0 0" fill="#878787"/><path d="m212.003906 176c11.046875 0 20 8.957031 20 20 0 11.046875-8.953125 20-20 20s-20-8.953125-20-20c0-11.042969 8.953125-20 20-20zm0 0" fill="#fbb540"/><g fill="#d9d9d9"><path d="m256.003906 124h88v16h-88zm0 0"/><path d="m256.003906 184h120v16h-120zm0 0"/><path d="m392.003906 184h16v16h-16zm0 0"/><path d="m256.003906 272h120v16h-120zm0 0"/><path d="m392.003906 272h16v16h-16zm0 0"/><path d="m256.003906 360h120v16h-120zm0 0"/><path d="m392.003906 360h16v16h-16zm0 0"/><path d="m264.003906 424h16v16h-16zm0 0"/></g><path d="m296.003906 424h16v16h-16zm0 0" fill="#f0f0f0"/><path d="m328.003906 424h16v16h-16zm0 0" fill="#d9d9d9"/><path d="m408.003906 128h-16v-16h-16v-16h24c4.417969 0 8 3.582031 8 8zm0 0" fill="#e6e6e6"/><path d="m200.003906 96h16v16h-16zm0 0" fill="#e6e6e6"/><path d="m168.003906 96h16v16h-16zm0 0" fill="#e6e6e6"/><path d="m400.003906 440h-24v-16h16v-16h16v24c0 4.421875-3.582031 8-8 8zm0 0" fill="#e6e6e6"/><path d="m273.339844 24h38.664062v16h-38.664062zm0 0" fill="#7a7a7a"/><path d="m178.089844 450.625 3.496094-4.984375c27.71875-39.601563 39.339843-88.265625 32.503906-136.117187-3.074219-21.53125-21.515625-37.523438-43.261719-37.523438-11.589844.003906-22.703125 4.609375-30.898437 12.800781l-2.292969 2.289063c-4.824219 4.820312-10.953125 8.128906-17.632813 9.511718v147.839844c2.171875 1.097656 4.066406 2.679688 5.527344 4.625l1.792969 2.398438c5.921875 7.894531 15.210937 12.539062 25.078125 12.535156 10.234375.003906 19.820312-4.992188 25.6875-13.375zm0 0" fill="#d9d9d9"/><path d="m212.003906 352c11.046875 0 20 8.957031 20 20 0 11.046875-8.953125 20-20 20s-20-8.953125-20-20c0-11.042969 8.953125-20 20-20zm0 0" fill="#fbb540"/><path d="m212.003906 352c-10.152344.066406-18.648437 7.726562-19.757812 17.820312-1.109375 10.089844 5.523437 19.414063 15.421875 21.675782 3.859375-12.765625 6.363281-25.90625 7.472656-39.199219-1.035156-.183594-2.085937-.28125-3.136719-.296875zm0 0" fill="#ecaa3c"/><path d="m212.003906 264c11.046875 0 20 8.957031 20 20 0 11.046875-8.953125 20-20 20s-20-8.953125-20-20c0-11.042969 8.953125-20 20-20zm0 0" fill="#fbb540"/><path d="m192.996094 278.066406c-1.984375 6.1875-.8125 12.953125 3.140625 18.109375 3.949219 5.160157 10.175781 8.054688 16.667969 7.753907-3.015626-10.855469-10.113282-20.125-19.808594-25.863282zm0 0" fill="#ecaa3c"/><path d="m172.132812 445.640625-3.496093 4.984375c-5.863281 8.382812-15.449219 13.378906-25.679688 13.375-9.871093 0-19.164062-4.644531-25.082031-12.542969l-1.800781-2.398437c-3.019531-4.03125-7.761719-6.402344-12.800781-6.402344-5.035157 0-9.777344 2.371094-12.796876 6.402344l-1.792968 2.398437c-5.921875 7.894531-15.210938 12.542969-25.082032 12.542969-10.230468.003906-19.820312-4.992188-25.6875-13.375l-3.511718-4.984375c-27.710938-39.605469-39.324219-88.265625-32.488282-136.117187 3.078126-21.53125 21.515626-37.523438 43.265626-37.523438 11.589843 0 22.703124 4.605469 30.894531 12.800781l2.296875 2.289063c6.601562 6.613281 15.5625 10.328125 24.910156 10.328125 9.34375 0 18.304688-3.714844 24.90625-10.328125l2.289062-2.289063c8.195313-8.195312 19.3125-12.800781 30.902344-12.800781 21.746094.003906 40.183594 15.992188 43.257813 37.523438 6.835937 47.851562-4.785157 96.515624-32.503907 136.117187zm0 0" fill="#f55648"/><path d="m111.273438 339.761719c-6.792969.003906-13.492188-1.574219-19.574219-4.601563-3.953125-1.972656-5.558594-6.78125-3.582031-10.734375 1.972656-3.953125 6.78125-5.558593 10.734374-3.585937 7.824219 3.898437 17.023438 3.898437 24.847657 0 3.953125-1.972656 8.761719-.367188 10.734375 3.585937 1.976562 3.953125.371094 8.761719-3.582032 10.734375-6.082031 3.03125-12.78125 4.605469-19.578124 4.601563zm0 0" fill="#dc4d41"/></svg>